<svg width="59" height="58" viewBox="0 0 59 58" fill="none" xmlns="http://www.w3.org/2000/svg">
<rect x="0.906128" width="57.7277" height="58" rx="12" fill="#F8DEBD"/>
<path d="M36.6732 13.3359H23.4984C22.7622 13.3359 22.1422 13.9589 22.1422 14.6986V29.8821C22.1422 30.6218 22.7622 31.2447 23.4984 31.2447H36.6732C37.4095 31.2447 38.0295 30.6218 38.0295 29.8821V14.6986C38.0295 13.9589 37.4095 13.3359 36.6732 13.3359ZM26.7921 25.4049H23.6922V24.2369H26.7921V25.4049ZM31.8296 25.4049H28.3421V24.2369H31.8296V25.4049ZM36.4795 25.4049H33.3795V24.2369H36.4795V25.4049Z" fill="#E79B38"/>
<path d="M38.2232 11H21.9485C20.786 11 19.8173 11.9733 19.8173 13.1413V32.1402C19.8173 33.2692 20.2435 34.3204 20.9797 35.1379L22.956 37.3181L22.9947 37.3571C24.3509 38.8365 24.5059 38.9922 24.8547 38.9922H27.9546V44.1313L28.4971 46H31.7133L32.2558 44.1313V39.0311H35.3558C35.7045 39.0311 35.8595 38.8754 37.2157 37.396L39.2307 35.1379C39.9669 34.3204 40.3932 33.2303 40.3932 32.1402V13.1413C40.3544 11.9733 39.3857 11 38.2232 11ZM25.6297 37.8632V36.6952H27.9546V37.8632H25.6297ZM30.6671 42.9244V40.5884H29.5046V42.9244H29.1171V36.6952H31.0546V42.9244H30.6671ZM29.3496 44.871L29.1171 44.0923H31.0158L30.7833 44.871H29.3496ZM32.2171 36.6952H34.542V37.8632H32.2171V36.6952ZM39.1919 32.1402C39.1919 32.9577 38.882 33.7364 38.3395 34.3593L36.3632 36.5395L36.3245 36.5784C36.1307 36.812 35.8982 37.0456 35.7045 37.2403V36.0723C35.7045 35.7608 35.4333 35.4883 35.1233 35.4883H25.0484C24.7384 35.4883 24.4672 35.7608 24.4672 36.0723V37.2403C24.2734 37.0067 24.0409 36.7731 23.8472 36.5784L21.8322 34.3593C21.2897 33.7364 20.9797 32.9577 20.9797 32.1402V13.1413C20.9797 12.5962 21.406 12.168 21.9485 12.168H38.2232C38.7657 12.168 39.1919 12.5962 39.1919 13.1413V32.1402Z" fill="#E79B38"/>
<path d="M25.8016 32.5845C25.2568 33.1318 25.085 33.8466 25.418 34.1811C25.7509 34.5156 26.4624 34.3431 27.0071 33.7957C27.5519 33.2484 27.7237 32.5335 27.3907 32.1991C27.0578 31.8646 26.3463 32.0371 25.8016 32.5845Z" fill="#E79B38"/>
<path d="M32.7765 32.5845C32.2318 33.1318 32.06 33.8466 32.3929 34.1811C32.7259 34.5156 33.4374 34.3431 33.9821 33.7957C34.5269 33.2484 34.6986 32.5335 34.3657 32.1991C34.0328 31.8646 33.3213 32.0371 32.7765 32.5845Z" fill="#E79B38"/>
<path d="M29.289 32.5845C28.7442 33.1318 28.5725 33.8466 28.9054 34.1811C29.2383 34.5156 29.9498 34.3431 30.4946 33.7957C31.0393 33.2484 31.2111 32.5335 30.8782 32.1991C30.5453 31.8646 29.8338 32.0371 29.289 32.5845Z" fill="#E79B38"/>
</svg>
