<svg width="174" height="74" viewBox="0 0 174 74" fill="none" xmlns="http://www.w3.org/2000/svg">
<path d="M37.027 31.2276C20.7977 32.8764 1 51.2276 1 51.2276V73.5H173.188V26.2276C173.188 26.2276 159.841 31.89 150.936 31.2276C132.841 29.8816 134.96 3.88336 117.028 1.22759C93.212 -2.29971 93.3672 36.3114 69.3453 38.2276C56.4421 39.2569 49.9018 29.9196 37.027 31.2276Z" fill="url(#paint0_linear_4_777)"/>
<path d="M1 51.2276C1 51.2276 20.7977 32.8764 37.027 31.2276C49.9018 29.9196 56.4421 39.2569 69.3453 38.2276C93.3672 36.3114 93.212 -2.29971 117.028 1.22759C134.96 3.88336 132.841 29.8816 150.936 31.2276C159.841 31.89 173.188 26.2276 173.188 26.2276" stroke="#F3A53F" stroke-linecap="round"/>
<defs>
<linearGradient id="paint0_linear_4_777" x1="87.0939" y1="1" x2="87.0939" y2="73.5" gradientUnits="userSpaceOnUse">
<stop stop-color="#F8DEBD"/>
<stop offset="1" stop-color="#FBEBD6" stop-opacity="0"/>
</linearGradient>
</defs>
</svg>
